# Blender 4.0.2
# www.blender.org
mtllib Cube.mtl
o Cube
v -40.207100 -39.724407 39.666348
v -40.207100 40.275593 39.666348
v -40.207100 -39.724407 -40.333652
v -40.207100 40.275593 -40.333652
v 39.792900 -39.724407 39.666348
v 39.792900 40.275593 39.666348
v 39.792900 -39.724407 -40.333652
v 39.792900 40.275593 -40.333652
vn -1.0000 -0.0000 -0.0000
vn -0.0000 -0.0000 -1.0000
vn 1.0000 -0.0000 -0.0000
vn -0.0000 -0.0000 1.0000
vn -0.0000 -1.0000 -0.0000
vn -0.0000 1.0000 -0.0000
vt 0.250043 0.000087
vt 0.500000 0.000087
vt 0.500000 0.250043
vt 0.250043 0.250043
vt 0.500000 0.500000
vt 0.250043 0.500000
vt 0.500000 0.749957
vt 0.250043 0.749957
vt 0.000099 0.000100
vt 0.996159 0.000100
vt 0.996159 0.999900
vt 0.000099 0.999900
vt 0.000087 0.500000
vt 0.000087 0.749957
vt 0.000099 0.000100
vt 0.996159 0.000100
vt 0.996159 0.999900
vt 0.000099 0.999900
s 0
usemtl Material
f 1/1/1 2/2/1 4/3/1 3/4/1
f 3/4/2 4/3/2 8/5/2 7/6/2
f 7/6/3 8/5/3 6/7/3 5/8/3
f 5/9/4 6/10/4 2/11/4 1/12/4
f 3/13/5 7/6/5 5/8/5 1/14/5
f 8/15/6 4/16/6 2/17/6 6/18/6
